<!-- icon666.com - MILLIONS vector ICONS FREE --><svg version="1.1" id="Capa_1" xmlns="http://www.w3.org/2000/svg" xmlns:xlink="http://www.w3.org/1999/xlink" x="0px" y="0px" viewBox="0 0 512 512" style="enable-background:new 0 0 512 512;" xml:space="preserve"><g><g><path d="M501.333,384H448v21.333h42.667v21.333c0,17.673-14.327,32-32,32H53.333c-17.673,0-32-14.327-32-32v-21.333h53.333V384 h-64C4.776,384,0,388.776,0,394.667v32C0.035,456.107,23.893,479.965,53.333,480h405.333 c29.441-0.035,53.298-23.893,53.333-53.333v-32C512,388.776,507.224,384,501.333,384z"></path></g></g><g><g><path d="M458.667,32H53.333C23.893,32.035,0.035,55.893,0,85.333V160c0,5.891,4.776,10.667,10.667,10.667h64v-21.333H21.333v-64 c0-17.673,14.327-32,32-32h405.333c17.673,0,32,14.327,32,32v64h-53.333v21.333h64c5.891,0,10.667-4.776,10.667-10.667V85.333 C511.965,55.893,488.107,32.035,458.667,32z"></path></g></g><g><g><rect x="10.667" y="96" width="458.667" height="21.333"></rect></g></g><g><g><rect x="53.333" y="64" width="96" height="21.333"></rect></g></g><g><g><rect x="170.667" y="64" width="21.333" height="21.333"></rect></g></g><g><g><rect x="213.333" y="64" width="21.333" height="21.333"></rect></g></g><g><g><rect x="256" y="64" width="21.333" height="21.333"></rect></g></g><g><g><rect x="298.667" y="64" width="21.333" height="21.333"></rect></g></g><g><g><path d="M74.667,341.333H53.333C41.551,341.333,32,331.782,32,320v-85.333c0-11.782,9.551-21.333,21.333-21.333h21.333 c11.782,0,21.333,9.551,21.333,21.333h21.333c0-23.564-19.102-42.667-42.667-42.667H53.333c-23.564,0-42.667,19.102-42.667,42.667 V320c0,23.564,19.102,42.667,42.667,42.667h21.333c23.564,0,42.667-19.103,42.667-42.667H96 C96,331.782,86.449,341.333,74.667,341.333z"></path></g></g><g><g><path d="M234.667,266.667h-85.333c-5.891,0-10.667,4.776-10.667,10.667V352c0,5.891,4.776,10.667,10.667,10.667h85.333 c5.891,0,10.667-4.776,10.667-10.667v-74.667C245.333,271.442,240.558,266.667,234.667,266.667z M224,341.333h-64V288h64V341.333z "></path></g></g><g><g><path d="M309.333,192h-32c-5.891,0-10.667,4.776-10.667,10.667V352c0,5.891,4.776,10.667,10.667,10.667h32 c35.332-0.035,63.965-28.668,64-64V256C373.298,220.668,344.665,192.035,309.333,192z M352,298.667 c0,23.564-19.103,42.667-42.667,42.667H288v-128h21.333C332.897,213.333,352,232.436,352,256V298.667z"></path></g></g><g><g><path d="M501.333,213.333v-10.667c0-5.891-4.776-10.667-10.667-10.667h-85.333c-5.891,0-10.667,4.776-10.667,10.667V352 c0,5.891,4.776,10.667,10.667,10.667h85.333c5.891,0,10.667-4.776,10.667-10.667v-10.667H416v-128H501.333z"></path></g></g><g><g><rect x="181.333" y="298.667" width="21.333" height="21.333"></rect></g></g><g><g><path d="M192,192c-23.564,0-42.667,19.102-42.667,42.667v42.667h21.333v-42.667c0-11.782,9.551-21.333,21.333-21.333 s21.333,9.551,21.333,21.333v42.667h21.333v-42.667C234.667,211.102,215.564,192,192,192z"></path></g></g><g><g><rect x="405.333" y="266.667" width="74.667" height="21.333"></rect></g></g><g><g><rect x="181.333" y="149.333" width="21.333" height="21.333"></rect></g></g><g><g><rect x="224" y="149.333" width="21.333" height="21.333"></rect></g></g><g><g><rect x="266.667" y="149.333" width="21.333" height="21.333"></rect></g></g><g><g><rect x="309.333" y="149.333" width="21.333" height="21.333"></rect></g></g><g><g><rect x="181.333" y="384" width="21.333" height="21.333"></rect></g></g><g><g><rect x="224" y="384" width="21.333" height="21.333"></rect></g></g><g><g><rect x="266.667" y="384" width="21.333" height="21.333"></rect></g></g><g><g><rect x="309.333" y="384" width="21.333" height="21.333"></rect></g></g></svg>