<!-- icon666.com - MILLIONS vector ICONS FREE --><svg version="1.1" id="Layer_1" xmlns="http://www.w3.org/2000/svg" xmlns:xlink="http://www.w3.org/1999/xlink" x="0px" y="0px" viewBox="0 0 512.001 512.001" style="enable-background:new 0 0 512.001 512.001;" xml:space="preserve"><g><g><path d="M377.122,232.744c-30.542-10.835-70.414-17.088-113.02-17.794V108.759c3.667,3.806,7.94,6.814,12.825,9 c6.088,2.724,12.99,4.084,20.686,4.084c17.867,0,40.008-7.332,66.148-21.941c26.712-14.928,47.735-31.981,48.617-32.699 l7.71-6.282l-7.71-6.282c-0.882-0.719-21.905-17.77-48.617-32.699C326.364,1.041,297.152-4.967,276.926,4.085 c-9.085,4.067-16.07,10.961-20.928,20.603c-4.858-9.643-11.843-16.537-20.928-20.603c-20.222-9.051-49.438-3.044-86.832,17.856 C121.526,36.87,100.502,53.922,99.621,54.64l-7.71,6.282l7.71,6.282c0.882,0.718,21.905,17.77,48.618,32.699 c26.14,14.609,48.279,21.941,66.147,21.941c7.694,0,14.599-1.36,20.685-4.084c4.885-2.186,9.158-5.194,12.826-9.001v106.193 c-42.607,0.706-82.48,6.959-113.02,17.794c-31.848,11.297-50.715,26.859-53.946,44.263h-0.499v167.466 c0,19.573,19.335,37.211,54.446,49.666c32.47,11.517,75.486,17.861,121.123,17.861c45.637,0,88.654-6.343,121.123-17.861 c35.11-12.454,54.446-30.093,54.446-49.666V282.41C431.568,262.836,412.231,245.198,377.122,232.744z M283.542,18.879 c28.16-12.611,83.366,21.729,110.52,42.043c-27.155,20.313-82.363,54.649-110.52,42.043 c-11.804-5.287-18.341-19.429-19.432-42.043C265.2,38.31,271.738,24.166,283.542,18.879z M228.454,102.965 c-28.151,12.612-83.365-21.728-110.52-42.043c27.155-20.314,82.37-54.651,110.52-42.043c11.804,5.286,18.34,19.429,19.432,42.043 C246.795,83.535,240.259,97.679,228.454,102.965z M415.36,444.473c0.001,11.838-16.32,24.695-43.657,34.392 c-30.775,10.917-71.868,16.928-115.706,16.928c-43.839,0-84.931-6.011-115.706-16.928c-27.337-9.698-43.657-22.554-43.657-34.392 v-24.649c9.138,7.659,21.996,14.532,38.24,20.294c32.47,11.517,75.486,17.861,121.123,17.861 c45.637,0,88.654-6.343,121.123-17.861c16.242-5.762,29.101-12.635,38.24-20.294V444.473z M415.36,390.452 c0.001,11.838-16.32,24.695-43.657,34.392c-30.775,10.917-71.868,16.928-115.706,16.928c-43.839,0-84.931-6.011-115.706-16.928 c-27.337-9.698-43.657-22.554-43.657-34.392v-24.649c9.138,7.659,21.996,14.532,38.24,20.294 c32.47,11.517,75.486,17.861,121.123,17.861c45.637,0,88.654-6.343,121.123-17.861c16.242-5.762,29.101-12.634,38.24-20.294 V390.452z M415.36,336.431c0.001,11.838-16.32,24.695-43.657,34.392c-30.775,10.917-71.868,16.928-115.706,16.928 c-43.839,0-84.931-6.011-115.706-16.928c-27.337-9.698-43.657-22.554-43.657-34.392v-24.649 c9.138,7.659,21.996,14.532,38.24,20.294c32.47,11.517,75.486,17.861,121.123,17.861c45.637,0,88.654-6.343,121.123-17.861 c16.242-5.762,29.101-12.635,38.24-20.294V336.431z M371.704,316.802c-30.775,10.917-71.868,16.928-115.706,16.928 c-43.839,0-84.931-6.011-115.706-16.928c-27.337-9.698-43.657-22.554-43.657-34.392s16.32-24.694,43.657-34.391 c28.871-10.241,66.822-16.165,107.603-16.86v37.746h-29.712v16.206h75.63v-16.206h-29.712v-37.746 c40.781,0.694,78.732,6.618,107.603,16.86c27.337,9.697,43.657,22.554,43.657,34.391 C415.361,294.248,399.041,307.104,371.704,316.802z"></path></g></g><g><g><rect x="358.634" y="274.309" width="21.609" height="16.206"></rect></g></g><g><g><rect x="131.745" y="274.309" width="21.609" height="16.206"></rect></g></g><g><g><rect x="174.962" y="52.819" width="48.619" height="16.206"></rect></g></g><g><g><rect x="288.407" y="52.819" width="48.619" height="16.206"></rect></g></g></svg>