<!-- icon666.com - MILLIONS vector ICONS FREE --><svg version="1.1" id="Capa_1" xmlns="http://www.w3.org/2000/svg" xmlns:xlink="http://www.w3.org/1999/xlink" x="0px" y="0px" viewBox="0 0 479.28 479.28" style="enable-background:new 0 0 479.28 479.28;" xml:space="preserve"><g><g><path d="M239.64,135.12c-30.442,0-55.12,24.678-55.12,55.12c0,30.442,24.678,55.12,55.12,55.12 c30.433-0.022,55.098-24.687,55.12-55.12C294.76,159.798,270.082,135.12,239.64,135.12z M239.64,237.36 c-26.015-0.022-47.098-21.105-47.12-47.12c0-26.024,21.096-47.12,47.12-47.12c26.024,0,47.12,21.096,47.12,47.12 C286.76,216.264,265.664,237.36,239.64,237.36z"></path></g></g><g><g><path d="M239.64,111.96c-44.006,0-79.68,35.674-79.68,79.68c0,23,26.24,73.08,70.28,134.04c2.177,3.007,5.689,4.755,9.4,4.68 c3.737,0.057,7.264-1.722,9.44-4.76c43.96-60.36,70.24-110.48,70.24-133.96C319.32,147.634,283.646,111.96,239.64,111.96z M242.64,320.92c-0.677,0.979-1.811,1.539-3,1.48c-1.17,0.069-2.292-0.477-2.96-1.44c-42.4-58.76-68.72-108.28-68.72-129.32 c0.022-39.579,32.101-71.658,71.68-71.68c39.579,0.022,71.658,32.101,71.68,71.68C311.32,213.2,285,262.76,242.64,320.92z"></path></g></g><g><g><path d="M335.24,0h-191.2c-18.481,0.022-33.458,14.999-33.48,33.48V445.8c0.022,18.481,14.999,33.458,33.48,33.48h191.2 c18.481-0.022,33.458-14.999,33.48-33.48V33.48C368.698,14.999,353.721,0.022,335.24,0z M360.72,445.8 c0,14.072-11.408,25.48-25.48,25.48h-191.2c-14.072,0-25.48-11.408-25.48-25.48h0V33.48C118.582,19.417,129.977,8.022,144.04,8 h191.2c14.063,0.022,25.458,11.417,25.48,25.48V445.8z"></path></g></g><g><g><path d="M338.76,55.84H140.52c-2.209,0-4,1.791-4,4V408.2c0,2.209,1.791,4,4,4h198.24c2.209,0,4-1.791,4-4V59.84 C342.76,57.631,340.969,55.84,338.76,55.84z M334.76,404.2H144.52V63.84h190.24V404.2z"></path></g></g><g><g><path d="M260.76,27.64h-42.24c-2.209,0-4,1.791-4,4s1.791,4,4,4h42.24c2.209,0,4-1.791,4-4S262.969,27.64,260.76,27.64z"></path></g></g><g><g><path d="M201.6,31.64c0-2.209-1.791-4-4-4c-2.209,0-4,1.791-4,4c0,2.209,1.791,4,4,4c0.013,0,0.027,0,0.04,0h-0.04 C199.809,35.64,201.6,33.849,201.6,31.64z"></path></g></g><g><g><path d="M239.64,421.56c-11.046,0-20,8.954-20,20c0,11.046,8.954,20,20,20s20-8.954,20-20 C259.64,430.514,250.686,421.56,239.64,421.56z M239.64,453.48v0.08c-6.627,0-12-5.373-12-12c0-6.627,5.373-12,12-12 c6.627,0,12,5.373,12,12C251.596,448.156,246.236,453.48,239.64,453.48z"></path></g></g><g><g><path d="M252.72,344.24l-26.08-0.28c-2.209,0-4,1.791-4,4c0,2.209,1.791,4,4,4l26.08,0.28c2.209,0,4-1.791,4-4 C256.72,346.031,254.929,344.24,252.72,344.24z"></path></g></g><g><g><path d="M268.84,165.16c-1.715-1.371-4.214-1.103-5.6,0.6l-33.04,41.12l-14.16-17.64c-1.386-1.703-3.885-1.971-5.6-0.6 c-1.733,1.37-2.027,3.886-0.657,5.619c0.006,0.007,0.011,0.014,0.017,0.021l17.28,21.36c0.763,0.94,1.91,1.484,3.12,1.48 c1.21,0.004,2.357-0.54,3.12-1.48l36-45.04C270.615,168.943,270.406,166.565,268.84,165.16z"></path></g></g></svg>